<?xml version="1.0" encoding="utf-8"?>
<!-- Generator: Adobe Illustrator 26.4.1, SVG Export Plug-In . SVG Version: 6.00 Build 0)  -->
<svg version="1.1" id="Capa_1" xmlns="http://www.w3.org/2000/svg" xmlns:xlink="http://www.w3.org/1999/xlink" x="0px" y="0px"
	 viewBox="0 0 2000 2000" style="enable-background:new 0 0 2000 2000;" xml:space="preserve">
<style type="text/css">
	.st0{fill:#FEFEFE;}
	.st1{fill:#FFB7C5;}
	.st2{font-family:'OttoAttacType-Regular';}
	.st3{font-size:829.4043px;}
	.st4{fill:none;stroke:#1D1D1B;stroke-width:9.8467;stroke-miterlimit:3.9612;}
</style>
<g>
	<path class="st0" d="M1853.5,1014c-41.3,294-82.7,588.1-123.7,882.1c-1.4,10-3.6,12-13.6,11.9c-588-0.3-1176.1-0.3-1764.2,0
		c-10,0-11.7-1.9-10.3-11.9C24.7,1308.1,107.3,720,189.6,131.9c1.4-10,3.6-12,13.6-11.9c588,0.3,1176.1,0.3,1764.2,0
		c10,0,11.7,1.9,10.3,11.9C1936.1,426,1894.8,720,1853.5,1014z"/>
	<path class="st1" d="M727.6,638.7c3.9,6.8,1.3,12.7,0.3,18.1c-8.6,45.5-11.3,90.2-1.1,133.3c15,63.7,49.4,113.8,98.1,153.7
		c23.5,19.2,47.3,38.1,74.3,52.8c50.8,27.5,105.5,46.4,164.2,58.5c58.6,12.1,118.8,12,179.6,10.1c41.4-1.3,82.9-8.9,124.1-20.8
		c5.9-1.7,13.1-5,16.4-0.6c2.9,3.9-2.8,10.1-5.4,14.6c-42.8,73.5-103.1,123.7-185.5,139.7c-61.1,11.9-120.6,7.9-180,2.2
		c-35.7-3.4-71.1-8-107.2-9.8c-24-1.2-47.7-4-72.1-3.9c-34.6,0.1-68.3,6.1-100.7,23.9c-12.1,6.6-13.6-1.7-15.3-8.7
		c-7.6-30.7-15-61.4-22.1-92.3c-13-56.8-26.5-113.4-32.2-172.5c-7-72.6-1.1-145.8,23.9-219.2C696.2,690.8,709.4,664.4,727.6,638.7z"
		/>
	<path class="st1" d="M1266.9,1218.3c-1.9,29-11.2,57.1-18,85.4c-18.4,76.2-69,119.8-143,141c-53.5,15.3-107.1,23.1-161,28.3
		c-30.4,2.9-60.6,3.3-90.8,6.3c-29,2.8-49.7-7.3-68.2-24.5c-29.7-27.5-53.1-59.6-61.7-101c-6.7-32.3-1.2-64.7,22.7-94.8
		c5.6-7.1,12.4-12.3,20.3-12.5c18.4-0.3,36.7-0.9,54.9,1.8c41.3,6,82.7,11.8,124.1,17.4c55.9,7.7,113.1,4,170.2-3.3
		c44.7-5.8,89.4-20.1,132.8-38.4C1254.7,1221.8,1260.1,1218.7,1266.9,1218.3z"/>
	<path class="st1" d="M669.8,1281.9c-1.8,13.1-3.1,21.8-4.3,30.5c-2.2,15.6-6.3,18.8-21.3,13.5c-20.1-7.1-39.4-15.7-58-25.5
		c-27.6-14.5-53.9-30.6-77.1-50.9c-36.4-31.9-57.5-73.3-69.1-121.5c-9.8-40.9-16.7-82.6-18.3-125.5c-1.3-36.7-0.6-73.8,0.8-110.8
		c1.2-30.5-0.8-60.3-3.9-89.9c-0.5-5.1-2.6-11,2.3-15.1c4.7-3.9,9.2,0.4,13.2,2.1c50,22.1,101.3,42.1,135.1,86.9
		c17.3,22.8,28,48.8,35.4,76.6c20.5,76.8,39.4,154.3,63.3,229.8C678.4,1215.1,669.5,1251.3,669.8,1281.9z"/>
	<path class="st1" d="M1020.2,420.2c-38.6,5.4-76.5,15.6-114,28.2c-77.8,26.2-146.1,68-196.8,137c-30.7,41.7-51.4,87.1-66.2,134.8
		c-15.7,50.3-24.2,101.1-32.8,152c-0.7,3.9,1,9.8-5.1,11.2c-5.2,1.1-6.6-4.3-8.6-7.6c-16.6-26.8-37.5-49.9-58.8-72.8
		c-30.9-33.3-70.1-55.4-111.7-74.3c-12.8-5.8-13.4-6.3-0.5-16.5c62.8-49.7,109-111.5,140.3-182.2c11.5-25.9,22.3-42,52.1-47.3
		c38.4-6.8,76.5-20,114.9-29.2c39.3-9.4,78.8-18.1,118.2-25.9C908.3,416.2,964.5,416.1,1020.2,420.2z"/>
	<path class="st1" d="M928.2,587.5c-43.8,30.6-59.9,73.8-69.3,120.6c-7.1,35.4-12.5,71-12,105.8c0.4,26.9,5.2,53.4,11.9,79
		c1.7,9.1-1.8,12.2-10.5,9.1c-24.6-23-46.3-48.3-61.8-78.8c-1.1-7.8-5.3-14-8.6-20.6c-11.7-30-16.3-62.1-12.7-95.8
		c5.6-53.3,13.1-106.7,20-160.1c0.6-4.8-0.5-10.1,8-12.3c38-9.6,74.5-25.1,110.6-42.1c68.3-32.1,140-49.3,209.8-74.9
		c11.1-4.1,22.1-14.7,33.6-10.9c10.4,3.5,12.1,16.3,18.3,24.6c33.9,44.9,74.9,82.3,120.6,115.1c-0.6,6.6-4.1,7.6-9.3,5.5
		c-29.9-11-58.8-24.1-90.6-31.1c-52.6-11.7-105.7-12.4-160.4,14c-20.1,9.7-40.3,18.8-60.5,28.2C951.2,568.3,939.3,577.2,928.2,587.5
		z"/>
	<path class="st1" d="M1434.7,694.8c21.7,58.9,17,122.4,1.5,186c-17.2,70.3-79.4,123.2-152.7,137.2c-31.8,6.1-62.4,3.9-93.3,3.2
		c-22.3-0.5-44.4-1.7-67.1,2.2c-7.8,1.3-11.5-0.1-10.4-9.3c4.7-40.9-7.5-76.7-20.8-112c-1.1-3-2.1-6.1-3.1-9.1
		c-0.7-2.1-2.1-4.5,0.1-6.7c2.6-2.6,5.6-1.8,8.3-0.9c10.6,3.4,21.2,6.9,31.9,10.3c59.7,19,115.9-4.3,172.6-35.3
		c36.5-20,59.1-47.2,71.5-85.7c12.2-37.9,17.2-74,5.4-109.1c-1.6-4.8-3-9.7-4.5-14.6c-1.6-9.8-6.1-18-10.7-26.3
		c-1.6-2.8-6.5-5.1-1.1-9.2c4-3.1,7.6-0.9,10.1,1.8c4.8,5.4,9.5,10.8,16.5,13.6c12,11.4,21,25.6,32.5,37.4l0,0
		C1426.4,676.7,1428.4,687,1434.7,694.8z"/>
	<path class="st1" d="M1492.3,741.4c25.3,47.2,34.3,100.6,39.7,155.3c4.7,48.1,7,96.7,5.1,145.9c-0.3,7.2,0.7,14.3,0.8,21.5
		c0.8,47.2-18.7,89.4-46.7,130.7c-20.3,29.8-44.1,53-77,66.9c-17.5,7.5-35.4,12.5-53.5,12.7c-23.2,0.2-46.9,2.3-70.8-3
		c16.7-24,32.8-47,48.9-70.1c43.9-63,78.6-129.5,106-199.4c26.6-67.9,35.4-136.5,39.7-205.3c1.1-18.5-2.6-36.7-4.1-55
		c-1-2.9-0.9-6,3-7C1489,733.2,1490.1,738.1,1492.3,741.4z"/>
	<path class="st1" d="M987.9,989.3c-39.9-40.7-80-81.3-97.6-138.9c-7.9-25.9-12.6-52.4-8.2-81.2c4.5-29.1,6.8-58.2,14.5-87.3
		c1.6-5.9,3.5-11.6,8.1-16.1c40.4-39.4,82.5-76.2,135.7-95.3c6.5-2.3,16.4-6.9,19.3-4.4c5.7,4.9-2.7,12.4-5.6,18.3
		c-20.9,42.3-36.9,85.4-42.6,130.6c-7.4,58.4,6.8,109.5,33.6,156.2c11.7,20.4,21.2,41.2,16.7,67.6c-1.7,10-5.3,19.1-12.2,27.2
		c-9.3,9.9-18.9,19.3-29.2,28.1c-13.9,11.8-14.5,11.9-26.2,0.5C992.2,992.6,990.2,990.8,987.9,989.3z"/>
	<path class="st1" d="M1293.6,825c-91.1,62.9-175.3,63.3-230.8-15.6c-8.1-11.5-2.9-25.3,1.3-37.7c9.9-29.6,26.6-56.7,44.6-83.1
		c2.4-3.6,5.2-8.6,10.4-7.9c6.8,0.9,5.6,7.5,6,12.4c3.9,44.4,20.1,81.4,56.7,104.8c28.2,18,61.8,23.5,97,24.3
		C1283.4,822.3,1288.4,821.3,1293.6,825z"/>
	<path class="st1" d="M1055.1,721.3c-0.4-35,3.3-66.9,22.5-97.5c12-19.1,24.7-37.9,36.9-56.9c6.4-9.9,12.8-14.5,24.4-10.1
		c24.9,9.4,53.7,6.4,79.8,12.8c27.7,6.8,52.1,19.1,76.9,31c2.4,1.1,5.8,2.8,4.6,6c-1.7,4.6-5.9,2.9-9,2.7
		c-15.8-1.1-31.5-3.1-47.5-3.3c-66.2-0.9-118.7,30.7-161.7,84.9C1074.4,700.5,1068.3,711.5,1055.1,721.3z"/>
	<path class="st1" d="M1292.4,699c-16.9-13.1-31.3-24.2-51.8-26.5c-21.6-2.4-41,12.8-47.8,33.9c-7.3,23-1.9,43.8,2.9,66.6
		c-11.4-2.8-16.4-10.6-21.3-17.5c-16-22.9-27.7-48.7-14.8-79.5c16.1-38.3,71-63.9,106-37.9C1283.7,651.5,1298.1,668.3,1292.4,699z"
		/>
	<path class="st1" d="M1255.9,734.9c10.3-1.3,20.6-1.5,30.7-4c20.6-5.1,31.4-17.5,34.7-37.9c1.9-11.2,1.9-22.2,0.3-33
		c-0.4-2.8-1.2-5.8,2.6-7.6c3.7-1.8,5.1,1,6.9,3c14.8,17.2,16.2,38.1,13.6,62.2c-3.6,33-23.2,53.1-49.8,71
		c-18.8,12.6-34.4,5.4-46.8-2.6c-14.1-9.1-25.4-23.3-21.7-44.5c1-5.9,3.8-7.4,9.1-7.2c6.7,0.3,13.6,0.1,20.4,0.1
		C1255.9,734.5,1255.9,734.7,1255.9,734.9z"/>
	<path class="st1" d="M1387.8,633.6c-11.2-1.5-12.8-15.6-25.8-17.6c5.5,12,14.1,21.2,11.8,34.9c-7.6-14.4-15.1-28.9-26.4-40.7
		c-1.6-6.7,1.5-8,7.1-6.3c10.1,6.3,21.5,11,28.7,20.9C1385.5,627.3,1390.6,628,1387.8,633.6z"/>
	<path class="st1" d="M987.9,989.3c1,0,2.1-0.3,2.9,0.1c19.1,10.2,19,10.2,38.5-6.7c6.6-5.8,13.6-11.2,20.4-16.8
		c-8.3,16.5-23.2,26.7-37.4,37.5c-5.6,4.2-10.3,2.1-13.9-2C994.8,997.4,991.4,993.3,987.9,989.3z"/>
	<path class="st1" d="M1387.8,633.6c-1.5-2.9-3-5.8-4.5-8.8c17.1,10.5,29.1,25.6,37.9,43.5C1405.6,661,1400.2,643.9,1387.8,633.6z"
		/>
	<path class="st1" d="M928.2,587.5c9.8-12.5,21-22.8,37.1-24.4C952.9,571.2,940.6,579.4,928.2,587.5z"/>
	<path class="st1" d="M1492.3,741.4c-4,0-6.6-11.2-11.9,0.2c-0.8-2.5-1.6-5-2.3-7.6c-0.7-2.6-1.9-5.3,1.8-7.4c4-2.3,6.6-0.6,7.9,2.5
		C1489.6,733.1,1493.5,736.1,1492.3,741.4z"/>
	<path class="st1" d="M1434.7,694.8c-9.3-6-11.2-16.4-13.5-26.5C1428.8,675.2,1432.5,684.6,1434.7,694.8z"/>
	<path class="st1" d="M1276.7,552c3.4-1.2,7.5-1.1,9.3-5.5c5.3-0.3,9.5,2.8,6.1,7.2C1286.1,561.2,1281.5,554.2,1276.7,552z"/>
	<path class="st1" d="M1354.6,603.9c-3.8,0.4-6.4,2.3-7.1,6.3c-3.4-3.7-6.9-7.5-12.5-13.6C1345.5,597.1,1350.1,600.3,1354.6,603.9z"
		/>
	<path class="st1" d="M848.3,902c6.9,0.9,9.6-3,10.5-9.1c1.9,4.8,6.9,10.3,0.9,14.9C853.9,912.3,850.8,906.3,848.3,902z"/>
	<path class="st1" d="M777.9,802.7c5.5,5.5,10.2,11.4,8.6,20.6C782.3,817.1,777.9,811,777.9,802.7z"/>
</g>
<g>
	<text transform="matrix(0.9903 0 -0.1392 0.9903 666.6066 1267.0173)" class="st2 st3">R</text>
	<text transform="matrix(0.9903 0 -0.1392 0.9903 666.6066 1267.0173)" class="st4 st2 st3">R</text>
</g>
</svg>
